<svg xmlns="http://www.w3.org/2000/svg" fill-rule="evenodd" stroke-linejoin="round" stroke-miterlimit="2" clip-rule="evenodd" viewBox="0 0 48 48" id="web-page">
  <path d="M24,3c-11.59,-0 -21,9.41 -21,21c0,11.59 9.41,21 21,21c11.59,0 21,-9.41 21,-21c0,-11.59 -9.41,-21 -21,-21Zm14,10c0,-1.656 -1.344,-3 -3,-3c-0,0 -22,0 -22,0c-1.656,0 -3,1.344 -3,3c0,0 0,22 0,22c0,1.656 1.344,3 3,3l22,0c1.656,0 3,-1.344 3,-3l0,-22Zm-2,5l0,17c0,0.552 -0.448,1 -1,1c-0,0 -22,0 -22,0c-0.552,0 -1,-0.448 -1,-1l0,-17l24,0Zm-4,6c0,-1.656 -1.344,-3 -3,-3l-10,0c-1.656,0 -3,1.344 -3,3c0,0 0,6 0,6c0,1.656 1.344,3 3,3l10,0c1.656,0 3,-1.344 3,-3c0,-0 0,-6 0,-6Zm-14,0.302l0,5.698c0,0.552 0.448,1 1,1c0,0 10,0 10,0c0.552,0 1,-0.448 1,-1l0,-5.698l-5.36,4.466c-0.371,0.309 -0.909,0.309 -1.28,0l-5.36,-4.466Zm10.438,-1.302l-8.876,0l4.438,3.698l4.438,-3.698Zm7.562,-7l-24,0l0,-3c0,-0.552 0.448,-1 1,-1l22,0c0.552,0 1,0.448 1,1l0,3Zm-9,-3c-0.552,0 -1,0.448 -1,1c0,0.552 0.448,1 1,1c0.552,0 1,-0.448 1,-1c0,-0.552 -0.448,-1 -1,-1Zm3,0c-0.552,0 -1,0.448 -1,1c0,0.552 0.448,1 1,1c0.552,0 1,-0.448 1,-1c0,-0.552 -0.448,-1 -1,-1Zm3,0c-0.552,0 -1,0.448 -1,1c0,0.552 0.448,1 1,1c0.552,0 1,-0.448 1,-1c0,-0.552 -0.448,-1 -1,-1Z"></path>
</svg>
